<svg width="32" height="32" viewBox="0 0 32 32" fill="none" xmlns="http://www.w3.org/2000/svg">
<path d="M0 10C0 4.47715 4.47715 0 10 0H22C27.5228 0 32 4.47715 32 10V22C32 27.5228 27.5228 32 22 32H10C4.47715 32 0 27.5228 0 22V10Z" fill="#DBEAFE"/>
<g clip-path="url(#clip0_2373_6336)">
<path d="M15.9997 22.6663C19.6816 22.6663 22.6663 19.6816 22.6663 15.9997C22.6663 12.3178 19.6816 9.33301 15.9997 9.33301C12.3178 9.33301 9.33301 12.3178 9.33301 15.9997C9.33301 19.6816 12.3178 22.6663 15.9997 22.6663Z" stroke="#155DFC" stroke-width="1.33333" stroke-linecap="round" stroke-linejoin="round"/>
<path d="M14.0596 14.0004C14.2163 13.5548 14.5257 13.1791 14.9329 12.9398C15.3401 12.7005 15.8188 12.613 16.2844 12.6929C16.7499 12.7727 17.1721 13.0147 17.4763 13.3761C17.7805 13.7374 17.9469 14.1947 17.9462 14.667C17.9462 16.0004 15.9462 16.667 15.9462 16.667" stroke="#155DFC" stroke-width="1.33333" stroke-linecap="round" stroke-linejoin="round"/>
<path d="M16 19.333H16.0067" stroke="#155DFC" stroke-width="1.33333" stroke-linecap="round" stroke-linejoin="round"/>
</g>
<defs>
<clipPath id="clip0_2373_6336">
<rect width="16" height="16" fill="white" transform="translate(8 8)"/>
</clipPath>
</defs>
</svg>
