<svg width="64" height="64" viewBox="0 0 64 64" fill="none" xmlns="http://www.w3.org/2000/svg">
<rect width="64" height="64" rx="16" fill="#1E8A28"/>
<path d="M29.1532 25.4084C30.4198 23.1361 31.0531 22 32 22C32.9469 22 33.5802 23.1361 34.8468 25.4084L35.1745 25.9962C35.5345 26.6419 35.7144 26.9648 35.9951 27.1778C36.2757 27.3908 36.6251 27.4699 37.3241 27.628L37.9605 27.772C40.4201 28.3286 41.65 28.6068 41.9426 29.5477C42.2352 30.4886 41.3968 31.4691 39.7199 33.4299L39.2861 33.9372C38.8096 34.4944 38.5713 34.773 38.4641 35.1177C38.357 35.4624 38.393 35.8341 38.465 36.5776L38.5306 37.2544C38.7841 39.8706 38.9109 41.1787 38.1449 41.7602C37.3788 42.3417 36.2273 41.8115 33.9243 40.7512L33.3285 40.4768C32.6741 40.1755 32.3469 40.0248 32 40.0248C31.6531 40.0248 31.3259 40.1755 30.6715 40.4768L30.0757 40.7512C27.7727 41.8115 26.6212 42.3417 25.8551 41.7602C25.0891 41.1787 25.2159 39.8706 25.4694 37.2544L25.535 36.5776C25.607 35.8341 25.643 35.4624 25.5359 35.1177C25.4287 34.773 25.1904 34.4944 24.7139 33.9372L24.2801 33.4299C22.6032 31.4691 21.7648 30.4886 22.0574 29.5477C22.35 28.6068 23.5799 28.3286 26.0395 27.772L26.6759 27.628C27.3749 27.4699 27.7243 27.3908 28.0049 27.1778C28.2856 26.9648 28.4655 26.6419 28.8255 25.9962L29.1532 25.4084Z" fill="white"/>
<path fill-rule="evenodd" clip-rule="evenodd" d="M32 10.5C32.8284 10.5 33.5 11.1716 33.5 12V16C33.5 16.8284 32.8284 17.5 32 17.5C31.1716 17.5 30.5 16.8284 30.5 16V12C30.5 11.1716 31.1716 10.5 32 10.5ZM45.0609 18.9391C45.6467 19.5249 45.6467 20.4746 45.0609 21.0604L44.3744 21.747C43.7886 22.3327 42.8388 22.3327 42.253 21.747C41.6673 21.1612 41.6673 20.2114 42.253 19.6256L42.9396 18.9391C43.5254 18.3533 44.4751 18.3533 45.0609 18.9391ZM18.9393 18.9393C19.5251 18.3536 20.4749 18.3536 21.0607 18.9393L21.7472 19.6259C22.333 20.2116 22.333 21.1614 21.7472 21.7472C21.1614 22.333 20.2116 22.333 19.6259 21.7472L18.9393 21.0607C18.3536 20.4749 18.3536 19.5251 18.9393 18.9393ZM10.5 32C10.5 31.1716 11.1716 30.5 12 30.5H16C16.8284 30.5 17.5 31.1716 17.5 32C17.5 32.8284 16.8284 33.5 16 33.5H12C11.1716 33.5 10.5 32.8284 10.5 32ZM46.5 32C46.5 31.1716 47.1716 30.5 48 30.5H52C52.8284 30.5 53.5 31.1716 53.5 32C53.5 32.8284 52.8284 33.5 52 33.5H48C47.1716 33.5 46.5 32.8284 46.5 32ZM21.747 42.253C22.3327 42.8388 22.3327 43.7886 21.747 44.3744L21.0609 45.0605C20.4751 45.6462 19.5253 45.6462 18.9395 45.0605C18.3538 44.4747 18.3538 43.5249 18.9395 42.9391L19.6256 42.253C20.2114 41.6673 21.1612 41.6673 21.747 42.253ZM42.253 42.2535C42.8388 41.6677 43.7885 41.6677 44.3743 42.2535L45.0604 42.9396C45.6462 43.5254 45.6462 44.4751 45.0604 45.0609C44.4746 45.6467 43.5249 45.6467 42.9391 45.0609L42.253 44.3748C41.6672 43.789 41.6672 42.8393 42.253 42.2535ZM32 46.5C32.8284 46.5 33.5 47.1716 33.5 48V52C33.5 52.8284 32.8284 53.5 32 53.5C31.1716 53.5 30.5 52.8284 30.5 52V48C30.5 47.1716 31.1716 46.5 32 46.5Z" fill="white"/>
</svg>
